<?xml version="1.0" encoding="utf-8"?>
<!-- Generator: Adobe Illustrator 27.3.1, SVG Export Plug-In . SVG Version: 6.00 Build 0)  -->
<svg version="1.1" id="Layer_1" xmlns="http://www.w3.org/2000/svg" xmlns:xlink="http://www.w3.org/1999/xlink" x="0px" y="0px"
	 viewBox="0 0 234.2 158.5" style="enable-background:new 0 0 234.2 158.5;" xml:space="preserve">
<style type="text/css">
	.st0{fill:#FCC078;}
	.st1{fill:#FEF4EB;}
	.st2{enable-background:new    ;}
	.st3{fill:#FFFFFF;}
</style>
<g id="Group_1371" transform="translate(67)">
	<g id="Group_1215" transform="translate(1.096 0)">
		<g id="Group_1214" transform="translate(0)">
			<path id="Path_8" class="st0" d="M75.8,59.9H52.5V25.4c4,0.2,8,0.7,11.9,1.6c0.1,7.4,3.6,15.2,7.3,23.4
				C73.1,53.6,74.5,56.7,75.8,59.9z"/>
			<path id="Path_9" class="st0" d="M101.7,52c0,2.7-0.2,5.3-0.6,8H81.7c-1.6-4.1-3.3-8-5-11.7c-3.2-7-6.1-13.7-6.7-19.6
				c12.6,4.1,23.6,12,31.7,22.6C101.7,51.4,101.7,51.7,101.7,52z"/>
			<path id="Path_10" class="st0" d="M28.7,12.6c2.8,2.3,4.8,5.4,5.7,8.9c4.1-0.9,8.3-1.5,12.5-1.6V0C37.7,0.5,28.7,3.4,21,8.5
				C23.8,9.4,26.4,10.8,28.7,12.6z"/>
			<path id="Path_11" class="st0" d="M28.9,22.8c-0.6-2.4-1.9-4.5-3.8-6c-2.9-2.1-6.2-3.5-9.7-4C6.9,20.3,1,30.3-1.3,41.4
				C7,32.8,17.5,26.4,28.9,22.8z"/>
			<path id="Path_12" class="st0" d="M52.5,19.8c4.2,0.2,8.4,0.7,12.5,1.6c0.9-3.5,2.9-6.6,5.7-8.9c2.3-1.8,4.9-3.2,7.6-4
				c-7.7-5.1-16.6-8-25.8-8.5V19.8z"/>
			<path id="Path_13" class="st0" d="M84,12.8c-3.5,0.5-6.9,1.9-9.7,4c-1.9,1.5-3.3,3.6-3.8,6c11.5,3.5,21.9,9.9,30.2,18.5
				C98.3,30.3,92.5,20.3,84,12.8z"/>
		</g>
	</g>
	<path id="Path_14" class="st0" d="M-0.2,62.6C2,60.2,10.7,51.4,22.3,51.3l1.4-3.1c3.2-7,6.1-13.7,6.7-19.6
		c-12.6,4.1-23.6,12-31.7,22.6V52c0,2.1,0.1,4.1,0.3,6.2C-0.8,59.7-0.5,61.2-0.2,62.6z"/>
	<g id="Group_1216" transform="translate(2.653 55.939)">
		<path id="Path_15" class="st1" d="M-1.3,11c0,0,11.3-14,25.9-10.4s17.2,13.6,28.7,21.9s14.2,10,14.2,10c-14.2,1.2-28-4.9-36.9-16
			c0,0,12.9,37.9,52.9,11.3c0,0,7-5.1,9.6-7.5s4.8-0.4-0.1,7.1c-5,7.5-22.6,30-56.9,21.9S-1.3,11-1.3,11z"/>
		<path id="Path_16" class="st1" d="M57.9,21.5c3.5-0.9,10.7-3,11.8-3.9c1.4-1.2-0.3-1.2-4.3-0.1c-3.4,0.8-6.9,1.3-10.4,1.7
			C55.8,19.9,56.8,20.6,57.9,21.5z"/>
		<path id="Path_17" class="st1" d="M74.6,19.1c-2.5,1.4-10.3,3.6-13.8,4.5c0.9,0.7,1.8,1.4,2.8,2.1c4.1-1.3,8.1-3.1,11.9-5.1
			C77.2,19.5,77.9,17.3,74.6,19.1z"/>
		<path id="Path_18" class="st1" d="M83.3,19.3c-1.4,1.6-15.1,8.2-16.3,8.8c1.4,0.9,2.8,1.8,4.3,2.5c2.9-1.6,10.2-5.9,13.3-8.5
			C88.4,18.8,84.8,17.7,83.3,19.3z"/>
	</g>
	<path id="Path_19" class="st0" d="M42.7,59.9H48V25.4c-4,0.2-8,0.7-11.9,1.6c-0.1,7.4-3.6,15.2-7.3,23.4c-0.2,0.5-0.5,1-0.7,1.5
		C33.5,53.3,38.6,56,42.7,59.9z"/>
</g>
<g id="Group_1373" transform="translate(-432 81.041)">
	<g class="st2">
		<path class="st3" d="M436.1,76.3c-1.7-0.6-3.1-1.3-4.1-2.2l1.1-1.8c1,0.8,2.2,1.5,3.8,2.1c1.5,0.6,3.2,0.8,4.9,0.8
			c2.4,0,4.2-0.4,5.4-1.2c1.1-0.8,1.7-1.9,1.7-3.3c0-1-0.3-1.8-0.9-2.4c-0.6-0.6-1.4-1-2.3-1.3c-0.9-0.3-2.2-0.6-3.8-0.9
			c-1.9-0.3-3.4-0.7-4.6-1.1c-1.2-0.4-2.2-1-3-1.9c-0.8-0.9-1.2-2.1-1.2-3.7c0-1.9,0.8-3.5,2.4-4.7c1.6-1.2,3.8-1.9,6.7-1.9
			c1.5,0,3.1,0.2,4.6,0.6c1.5,0.4,2.7,1,3.7,1.7l-1.1,1.8c-1-0.7-2.1-1.2-3.4-1.6c-1.3-0.4-2.5-0.6-3.9-0.6c-2.2,0-3.9,0.4-5.1,1.2
			c-1.1,0.8-1.7,1.9-1.7,3.3c0,1.1,0.3,1.9,1,2.5c0.6,0.6,1.4,1,2.4,1.3c0.9,0.3,2.2,0.6,3.9,0.9c1.9,0.3,3.4,0.7,4.5,1.1
			c1.1,0.4,2.1,1,2.9,1.9c0.8,0.9,1.2,2,1.2,3.5c0,2-0.8,3.6-2.5,4.8c-1.7,1.2-4,1.8-7,1.8C439.7,77.2,437.8,76.9,436.1,76.3z"/>
		<path class="st3" d="M472.5,55.1c1.6,1.5,2.4,3.7,2.4,6.7V77h-2.2v-4.3c-0.8,1.4-1.9,2.5-3.4,3.3c-1.5,0.8-3.2,1.2-5.3,1.2
			c-2.7,0-4.8-0.6-6.3-1.9c-1.5-1.3-2.3-2.9-2.3-5c0-2,0.7-3.6,2.1-4.9c1.4-1.2,3.7-1.9,6.8-1.9h8.2v-1.9c0-2.2-0.6-3.9-1.8-5.1
			c-1.2-1.2-3-1.7-5.3-1.7c-1.6,0-3.1,0.3-4.6,0.8c-1.5,0.6-2.7,1.3-3.7,2.2l-1.1-1.7c1.2-1.1,2.6-1.9,4.3-2.5
			c1.7-0.6,3.4-0.9,5.3-0.9C468.6,52.8,470.9,53.6,472.5,55.1z M469.4,73.9c1.4-0.9,2.4-2.3,3.2-4v-4.5h-8.2c-2.4,0-4.1,0.4-5.1,1.3
			s-1.6,2-1.6,3.5c0,1.6,0.6,2.8,1.7,3.7c1.2,0.9,2.8,1.4,4.9,1.4C466.3,75.3,468,74.8,469.4,73.9z"/>
		<path class="st3" d="M487.1,49.5V53h7.7v2h-7.6v22h-2.3V55h-4.4v-2h4.4v-3.7c0-2,0.6-3.6,1.7-4.8c1.2-1.2,2.8-1.8,4.9-1.8
			c0.9,0,1.8,0.1,2.6,0.4c0.8,0.3,1.5,0.7,2.1,1.2l-0.9,1.7c-1-0.9-2.2-1.3-3.7-1.3C488.6,44.7,487.1,46.3,487.1,49.5z"/>
		<path class="st3" d="M519.3,65.5h-20.7c0.1,1.9,0.5,3.5,1.4,5c0.9,1.5,2.1,2.6,3.6,3.4c1.5,0.8,3.2,1.2,5.1,1.2
			c1.6,0,3-0.3,4.3-0.9c1.3-0.6,2.4-1.4,3.3-2.5l1.3,1.5c-1,1.3-2.4,2.2-3.9,2.9c-1.6,0.7-3.3,1-5.1,1c-2.4,0-4.5-0.5-6.4-1.6
			c-1.9-1-3.3-2.5-4.4-4.3c-1.1-1.8-1.6-3.9-1.6-6.3c0-2.3,0.5-4.4,1.5-6.3c1-1.9,2.4-3.3,4.1-4.3c1.7-1,3.7-1.6,5.9-1.6
			c2.2,0,4.1,0.5,5.9,1.5c1.7,1,3.1,2.5,4.1,4.3c1,1.8,1.5,3.9,1.5,6.3L519.3,65.5z M503.3,56c-1.4,0.8-2.4,1.8-3.2,3.2
			c-0.8,1.4-1.3,2.9-1.4,4.6h18.4c-0.1-1.7-0.6-3.2-1.4-4.6c-0.8-1.3-1.9-2.4-3.3-3.2c-1.4-0.8-2.9-1.1-4.6-1.1
			C506.2,54.8,504.7,55.2,503.3,56z"/>
	</g>
	<g class="st2">
		<path class="st3" d="M548.8,77l-5.1-7.4h-0.3H538V77h-6.2V50.4h11.5c2.4,0,4.4,0.4,6.1,1.2c1.7,0.8,3.1,1.9,4,3.3
			c0.9,1.4,1.4,3.2,1.4,5.1c0,2-0.5,3.7-1.4,5.1c-0.9,1.4-2.3,2.5-4,3.3l6,8.5H548.8z M547.2,56.6c-1-0.8-2.4-1.2-4.2-1.2h-5v9.3h5
			c1.8,0,3.3-0.4,4.2-1.2c1-0.8,1.4-2,1.4-3.4C548.7,58.6,548.2,57.4,547.2,56.6z"/>
		<path class="st3" d="M580.3,72.1V77h-20.6V50.4h20.1v4.9h-14v5.8h12.3v4.8h-12.3v6.2H580.3z"/>
		<path class="st3" d="M602.8,71.3h-12.4l-2.4,5.7h-6.3l11.9-26.6h6.1L611.6,77h-6.5L602.8,71.3z M600.8,66.6l-4.2-10.2l-4.2,10.2
			H600.8z"/>
		<path class="st3" d="M619.4,75.7c-2.2-1.2-3.9-2.8-5.2-4.9s-1.9-4.5-1.9-7.1s0.6-5,1.9-7.1s3-3.7,5.2-4.9s4.7-1.8,7.4-1.8
			c2.3,0,4.4,0.4,6.3,1.2s3.4,2,4.7,3.5l-4,3.6c-1.8-2.1-4-3.1-6.7-3.1c-1.6,0-3.1,0.4-4.4,1.1c-1.3,0.7-2.3,1.7-3,3
			c-0.7,1.3-1.1,2.8-1.1,4.4s0.4,3.1,1.1,4.4c0.7,1.3,1.7,2.3,3,3c1.3,0.7,2.8,1.1,4.4,1.1c2.7,0,4.9-1.1,6.7-3.2l4,3.6
			c-1.3,1.5-2.8,2.7-4.7,3.5c-1.9,0.8-4,1.2-6.3,1.2C624,77.5,621.5,76.9,619.4,75.7z"/>
		<path class="st3" d="M666.2,50.4V77h-6.2V66.1H648V77h-6.2V50.4h6.2v10.5h12.1V50.4H666.2z"/>
	</g>
</g>
</svg>
